<svg width="17" height="18" viewBox="0 0 17 18" fill="none" xmlns="http://www.w3.org/2000/svg">
<path d="M9.80102 2.88364C9.92309 2.88364 10.0259 2.9258 10.1094 3.01012C10.1929 3.09444 10.2475 3.20742 10.2732 3.34907L10.2975 3.54197L10.3474 3.91649C10.4572 4.7117 10.5786 5.40114 10.7117 5.98482C10.8756 6.7032 11.0908 7.29342 11.3574 7.75548C11.6241 8.21754 11.9742 8.58685 12.4079 8.86341C12.8416 9.13997 13.3925 9.35919 14.0607 9.52108C14.6453 9.66273 15.3505 9.78631 16.1762 9.89181L16.5374 9.93592C16.6723 9.94941 16.7832 10.0034 16.8699 10.0978C16.9566 10.1922 17 10.3069 17 10.4418C17 10.57 16.9566 10.6813 16.8699 10.7757C16.7832 10.8702 16.6723 10.9275 16.5374 10.9477L16.1761 10.9918C15.3501 11.0969 14.6433 11.2188 14.0558 11.3575C13.3844 11.516 12.8319 11.7352 12.3982 12.0152C11.9646 12.2951 11.6144 12.6661 11.3478 13.1282C11.0812 13.5902 10.8675 14.1788 10.7069 14.8938C10.5965 15.3853 10.4937 15.955 10.3984 16.6028L10.3472 16.9639L10.2975 17.3405C10.2894 17.4045 10.2813 17.4692 10.2732 17.5346C10.254 17.6695 10.201 17.7808 10.1142 17.8685C10.0275 17.9562 9.92309 18 9.80102 18C9.67253 18 9.56491 17.9562 9.47817 17.8685C9.39144 17.7808 9.33844 17.6695 9.31916 17.5346C9.27499 17.2078 9.22972 16.8976 9.18336 16.6038L9.12719 16.2591C9.04215 15.754 8.95355 15.3023 8.86139 14.9039C8.69756 14.1956 8.48233 13.6121 8.2157 13.1535C7.94907 12.6948 7.59892 12.3288 7.16525 12.0557C6.73158 11.7825 6.18065 11.5632 5.51247 11.398C5.38719 11.367 5.25648 11.3365 5.12036 11.3066L4.84088 11.2475C4.7931 11.2378 4.74471 11.2281 4.69572 11.2185L4.39456 11.1615C4.34316 11.1521 4.29116 11.1428 4.23856 11.1335L3.91571 11.0786C3.64065 11.0335 3.35053 10.9899 3.04535 10.9477C2.91043 10.9275 2.80121 10.8702 2.71769 10.7757C2.63416 10.6813 2.5924 10.57 2.5924 10.4418C2.5924 10.3069 2.63416 10.1922 2.71769 10.0978C2.80121 10.0034 2.91043 9.94941 3.04535 9.93592L3.40667 9.89181L3.75338 9.84549C4.4322 9.75063 5.02338 9.6425 5.52693 9.52108C6.19832 9.35919 6.75246 9.13997 7.18934 8.86341C7.62623 8.58685 7.97638 8.21754 8.2398 7.75548C8.50321 7.29342 8.71523 6.7032 8.87585 5.98482C8.93608 5.71543 8.99451 5.42351 9.05113 5.10906L9.10714 4.7871L9.16195 4.45012C9.17099 4.39271 9.17997 4.33467 9.18891 4.276L9.24191 3.91649C9.25065 3.85532 9.25933 3.79353 9.26796 3.73111L9.31916 3.34907C9.33844 3.20742 9.38983 3.09444 9.47336 3.01012C9.55688 2.9258 9.6661 2.88364 9.80102 2.88364ZM3.53685 0C3.72274 0 3.83028 0.0940153 3.85946 0.282046L3.88122 0.451444L3.91463 0.695717L3.94804 0.925239L3.98144 1.14001L4.01485 1.34003L4.04826 1.52531L4.08167 1.69583C4.09281 1.75021 4.10394 1.80214 4.11508 1.8516C4.1986 2.2226 4.3287 2.49916 4.50539 2.68128C4.68207 2.86341 4.9487 3 5.30527 3.09106L5.45518 3.12758C5.50758 3.13978 5.56241 3.15201 5.61966 3.16427L5.7987 3.20115L5.9923 3.2382L6.20046 3.27544L6.42319 3.31285C6.46152 3.3191 6.50046 3.32536 6.54001 3.33162L6.78458 3.36931C6.8681 3.3828 6.93878 3.4199 6.9966 3.48061C7.05442 3.54132 7.08333 3.61889 7.08333 3.71332C7.08333 3.90219 6.98375 4.01686 6.78458 4.05734L6.54001 4.10779L6.31 4.15663L5.9923 4.22685L5.7987 4.27164L5.5356 4.33579L5.37841 4.37653C5.35342 4.38318 5.32904 4.38977 5.30527 4.39629C4.9487 4.4941 4.68207 4.63406 4.50539 4.81619C4.3287 4.99831 4.1986 5.26644 4.11508 5.62057C4.09837 5.6914 4.08167 5.76783 4.06497 5.84985L4.03156 6.02136C4.02599 6.05119 4.02042 6.08164 4.01485 6.11272L3.98144 6.30662L3.94804 6.51546L3.91463 6.73923L3.88122 6.97792C3.87565 7.01895 3.87008 7.0606 3.86451 7.10287C3.85809 7.1973 3.82436 7.27319 3.76332 7.33052C3.70229 7.38786 3.6268 7.41653 3.53685 7.41653C3.3441 7.41653 3.23488 7.3086 3.20918 7.09275L3.18057 6.84389L3.15127 6.60996C3.14633 6.57222 3.14137 6.5351 3.13637 6.4986L3.10604 6.28706C3.10093 6.25305 3.09579 6.21966 3.09062 6.18689L3.05927 5.99775C3.05399 5.96747 3.04868 5.93782 3.04334 5.90878L3.01096 5.74204C3.00005 5.68894 2.98903 5.63834 2.97789 5.59022C2.89437 5.22934 2.76427 4.95784 2.58759 4.77572C2.4109 4.59359 2.14588 4.45363 1.79252 4.35582L1.64415 4.31661C1.59235 4.3035 1.53821 4.29037 1.48173 4.27721L1.30526 4.23764L1.11474 4.19789L0.910179 4.15796L0.691565 4.11784C0.653958 4.11114 0.615766 4.10443 0.576989 4.09772L0.337302 4.05734C0.112434 4.02361 0 3.90894 0 3.71332C0 3.53075 0.086749 3.41869 0.260247 3.37713L0.656871 3.29767L0.878055 3.25126L1.08519 3.20594C1.11854 3.19847 1.15131 3.19105 1.18349 3.18368L1.36955 3.13997L1.54156 3.09734L1.69953 3.05578C1.72469 3.04895 1.74926 3.04216 1.77324 3.03541C2.13303 2.93423 2.40287 2.79427 2.58277 2.61551C2.76266 2.43676 2.89437 2.17201 2.97789 1.82125C3.00573 1.70433 3.03286 1.5713 3.05927 1.42215L3.09062 1.23544C3.09579 1.20303 3.10093 1.16998 3.10604 1.13628L3.13637 0.926363L3.16601 0.700979L3.19496 0.460124C3.19973 0.418692 3.20447 0.376616 3.20918 0.333895C3.23488 0.111298 3.3441 0 3.53685 0Z" fill="#0047FF"/>
</svg>
