<svg width="185" height="20" viewBox="0 0 185 20" fill="none" xmlns="http://www.w3.org/2000/svg">
<path fill-rule="evenodd" clip-rule="evenodd" d="M43.3459 0.127669C45.8057 0.127669 47.6812 0.58451 48.9727 1.49755C50.2638 2.4108 51.0318 3.86362 51.2772 5.85622L45.6701 6.1837C45.5211 5.31859 45.2083 4.68941 44.7313 4.29617C44.2541 3.90294 43.5954 3.70611 42.7549 3.70611C42.0635 3.70611 41.5423 3.85287 41.1923 4.14533C40.8421 4.43821 40.6673 4.79427 40.6673 5.21372C40.6673 5.51972 40.8115 5.79498 41.1004 6.03973C41.3805 6.29308 42.0458 6.52902 43.0965 6.74734C45.6963 7.30668 47.5587 7.87268 48.6838 8.44491C49.8085 9.01757 50.6272 9.72776 51.1393 10.575C51.6513 11.4228 51.9075 12.3708 51.9075 13.4197C51.9075 14.6518 51.5661 15.7879 50.8831 16.8279C50.2005 17.8679 49.2461 18.6566 48.0206 19.194C46.795 19.7312 45.2499 20 43.3853 20C40.1111 20 37.844 19.371 36.5833 18.1125C35.3227 16.8539 34.6092 15.2548 34.443 13.3148L40.1025 12.9609C40.225 13.8786 40.4744 14.5774 40.8511 15.0581C41.4638 15.836 42.3392 16.2247 43.4772 16.2247C44.3264 16.2247 44.9808 16.026 45.4404 15.6284C45.8999 15.2309 46.1296 14.7698 46.1296 14.2457C46.1296 13.7476 45.9107 13.3015 45.4733 12.9085C45.0353 12.515 44.0199 12.1437 42.4268 11.7941C39.8179 11.2089 37.9577 10.4311 36.8459 9.46087C35.7253 8.4909 35.1652 7.25425 35.1652 5.75114C35.1652 4.76376 35.4519 3.83074 36.0253 2.95251C36.5986 2.07407 37.4609 1.38409 38.6121 0.881262C39.763 0.378867 41.3411 0.127669 43.3459 0.127669ZM161.338 0.000150419C164.542 0.000150419 167.011 0.858606 168.744 2.57595C169.083 2.91156 169.389 3.27347 169.661 3.66167L169.661 0.32776H175.609V14.8128H184.893V19.5447H169.661L169.662 16.2168C168.955 17.23 168.043 18.0487 166.925 18.673C165.494 19.4726 163.711 19.8725 161.575 19.8725C159.404 19.8725 157.607 19.5274 156.184 18.8367C154.762 18.1465 153.608 17.0541 152.724 15.5596C152.363 14.949 152.075 14.2757 151.862 13.5396C151.685 14.1885 151.455 14.781 151.173 15.3172C150.416 16.755 149.321 17.8734 147.89 18.673C146.459 19.4726 144.675 19.8725 142.539 19.8725C140.368 19.8725 138.571 19.5274 137.149 18.8367C135.726 18.1465 134.573 17.0541 133.689 15.5596C132.804 14.0655 132.363 12.1954 132.363 9.94921C132.363 6.81214 133.238 4.36979 134.989 2.62172C136.74 0.874077 139.178 0.000150419 142.303 0.000150419C145.507 0.000150419 147.975 0.858606 149.709 2.57595C150.731 3.58866 151.452 4.84085 151.871 6.33238C152.298 4.86527 153.016 3.62837 154.024 2.62172C155.775 0.874077 158.213 0.000150419 161.338 0.000150419ZM76.9276 0C79.3874 0 81.2629 0.45684 82.5542 1.36988C83.8455 2.28313 84.6135 3.73595 84.8587 5.72855L79.2517 6.05625C79.1028 5.19092 78.7898 4.56174 78.3128 4.16872C77.8358 3.77527 77.1771 3.57865 76.3365 3.57865C75.6449 3.57865 75.124 3.7252 74.774 4.01766C74.4238 4.31076 74.2488 4.66682 74.2488 5.08627C74.2488 5.39226 74.3932 5.66731 74.6821 5.91206C74.9621 6.16541 75.6275 6.40135 76.6782 6.61967C79.278 7.17922 81.1404 7.74501 82.2655 8.31724C83.39 8.8899 84.2088 9.60009 84.7207 10.4474C85.233 11.2953 85.489 12.2431 85.489 13.2922C85.489 14.5243 85.1476 15.6602 84.4648 16.7002C83.782 17.7403 82.8278 18.5289 81.6021 19.0663C80.3764 19.6037 78.8316 19.8725 76.9668 19.8725C73.6928 19.8725 71.4255 19.2434 70.165 17.985C68.9042 16.7265 68.1909 15.1273 68.0247 13.1871L73.6842 12.8334C73.8066 13.751 74.0561 14.45 74.4326 14.9305C75.0452 15.7083 75.9209 16.0973 77.0589 16.0973C77.9079 16.0973 78.5625 15.8985 79.0219 15.5008C79.4816 15.1032 79.7113 14.6421 79.7113 14.118C79.7113 13.6199 79.4924 13.174 79.0548 12.7808C78.617 12.3875 77.6016 12.0162 76.0083 11.6666C73.3996 11.0813 71.5394 10.3034 70.4276 9.33342C69.307 8.36344 68.7466 7.12658 68.7466 5.62347C68.7466 4.63609 69.0336 3.70307 69.607 2.82484C70.1802 1.94662 71.0426 1.25642 72.1937 0.753808C73.3447 0.251413 74.9227 0 76.9276 0ZM97.1842 8.59445e-05C99.6089 8.59445e-05 101.515 0.489588 102.903 1.46816C104.29 2.44717 105.321 3.95006 105.995 5.97747L100.743 7.14428C100.559 6.55894 100.366 6.13047 100.165 5.8595C99.8321 5.40524 99.425 5.05563 98.9437 4.81087C98.4622 4.56634 97.9239 4.44386 97.3287 4.44386C95.9805 4.44386 94.9473 4.98536 94.2297 6.06751C93.6868 6.87052 93.4156 8.13188 93.4156 9.85116C93.4156 11.9809 93.7393 13.441 94.3872 14.2307C95.0351 15.0206 95.9452 15.4158 97.1184 15.4158C98.2564 15.4158 99.1166 15.0967 99.6989 14.4587C100.281 13.8209 100.703 12.8943 100.966 11.6798L106.179 13.2527C105.829 14.7122 105.277 15.9313 104.524 16.9098C103.771 17.8888 102.837 18.6272 101.721 19.1253C100.605 19.6234 99.1844 19.8724 97.4598 19.8724C95.3675 19.8724 93.6584 19.569 92.3322 18.962C91.006 18.3551 89.8613 17.2878 88.8984 15.7594C87.9352 14.2309 87.4541 12.2748 87.4541 9.89048C87.4541 6.71151 88.3009 4.26851 89.9949 2.56106C91.6888 0.853814 94.0852 8.59445e-05 97.1842 8.59445e-05ZM9.914 0.455494C11.7523 0.455494 13.1575 0.612788 14.1291 0.927376C15.1008 1.24196 15.8841 1.82537 16.4795 2.67716C17.0749 3.52939 17.3726 4.56727 17.3726 5.79038C17.3726 6.85684 17.1448 7.77654 16.6892 8.5499C16.2337 9.32326 15.6073 9.95051 14.8104 10.431C14.3024 10.737 13.6063 10.9903 12.7214 11.1912C13.4298 11.4274 13.9462 11.6638 14.2699 11.8997C14.4886 12.057 14.8055 12.3939 15.2213 12.9101C15.6368 13.4262 15.9147 13.8242 16.0546 14.104L18.9351 19.6724H12.2138L9.03425 13.7997C8.6313 13.0394 8.27268 12.5456 7.95733 12.3187C7.52833 12.0215 7.0425 11.8726 6.49984 11.8726H5.97462V19.6724H0V0.455494H9.914ZM115.653 0.32776V7.05229H122.153V0.32776H128.128V19.5447H122.153V11.7715H115.653V19.5447H109.705V0.32776H115.653ZM142.29 4.49635C141.09 4.49635 140.127 4.92031 139.401 5.76781C138.674 6.61574 138.311 8.01806 138.311 9.97564C138.311 11.9158 138.672 13.3095 139.394 14.1573C140.116 15.0047 141.099 15.4285 142.342 15.4285C143.62 15.4285 144.609 15.0138 145.31 14.1833C146.01 13.3532 146.36 11.8634 146.36 9.71327C146.36 7.9046 145.995 6.58286 145.264 5.74826C144.533 4.91365 143.541 4.49635 142.29 4.49635ZM161.325 4.49635C160.126 4.49635 159.163 4.92031 158.436 5.76781C157.709 6.61574 157.346 8.01806 157.346 9.97564C157.346 11.9158 157.708 13.3095 158.43 14.1573C159.152 15.0047 160.135 15.4285 161.378 15.4285C162.656 15.4285 163.645 15.0138 164.345 14.1833C165.046 13.3532 165.396 11.8634 165.396 9.71327C165.396 7.9046 165.03 6.58286 164.299 5.74826C163.568 4.91365 162.577 4.49635 161.325 4.49635ZM8.58782 4.33563H5.97462V8.24176H8.48277C8.75399 8.24176 9.27921 8.15452 10.0584 7.9796C10.4524 7.90096 10.7739 7.70004 11.0236 7.37664C11.2731 7.05346 11.3978 6.68193 11.3978 6.26248C11.3978 5.6419 11.2008 5.16593 10.8069 4.83373C10.413 4.50152 9.67313 4.33563 8.58782 4.33563Z" fill="white"/>
</svg>
